<?xml version="1.0" encoding="UTF-8" standalone="no" ?>
<!DOCTYPE svg PUBLIC "-//W3C//DTD SVG 1.1//EN" "http://www.w3.org/Graphics/SVG/1.1/DTD/svg11.dtd">
<svg xmlns="http://www.w3.org/2000/svg" xmlns:xlink="http://www.w3.org/1999/xlink" version="1.1" width="1080" height="1080" viewBox="0 0 1080 1080" xml:space="preserve">
<desc>Created with Fabric.js 5.2.4</desc>
<defs>
</defs>
<g transform="matrix(1 0 0 1 540 540)" id="7d18910e-10e9-4863-b439-5a894fe20e23"  >
<rect style="stroke: none; stroke-width: 1; stroke-dasharray: none; stroke-linecap: butt; stroke-dashoffset: 0; stroke-linejoin: miter; stroke-miterlimit: 4; fill: rgb(255,255,255); fill-rule: nonzero; opacity: 1; visibility: hidden;" vector-effect="non-scaling-stroke"  x="-540" y="-540" rx="0" ry="0" width="1080" height="1080" />
</g>
<g transform="matrix(1 0 0 1 540 540)" id="6e852b16-75fe-406f-a8e1-f06204afb404"  >
</g>
<g transform="matrix(4.22 0 0 4.22 540 540)"  >
<g style=""   >
		<g transform="matrix(2.81 0 0 2.81 83.2 -0.14)"  >
<path style="stroke: none; stroke-width: 1; stroke-dasharray: none; stroke-linecap: butt; stroke-dashoffset: 0; stroke-linejoin: miter; stroke-miterlimit: 10; fill: rgb(42,237,0); fill-rule: nonzero; opacity: 1;" vector-effect="non-scaling-stroke"  transform=" translate(-74.66, -45)" d="M 74.635 55.709 C 73.63300000000001 55.709 72.64200000000001 55.458000000000006 71.739 54.963 C 70.051 54.039 68.894 52.347 68.64500000000001 50.436 C 68.50200000000001 49.34 69.275 48.337 70.37100000000001 48.195 C 71.468 48.046 72.47000000000001 48.825 72.61200000000001 49.921 C 72.697 50.578 73.08000000000001 51.138 73.66000000000001 51.455 C 74.14200000000001 51.719 74.69200000000001 51.778999999999996 75.22000000000001 51.625 C 75.74400000000001 51.472 76.17800000000001 51.122 76.44100000000002 50.643 C 76.98400000000002 49.652 76.61900000000001 48.405 75.62800000000001 47.863 L 71.73800000000001 45.63 C 68.84800000000001 44.049 67.77000000000001 40.366 69.37100000000001 37.441 C 70.974 34.515 74.65400000000001 33.436 77.58100000000002 35.038000000000004 C 79.27000000000001 35.962 80.42800000000001 37.655 80.67700000000002 39.565000000000005 C 80.82000000000002 40.661 80.04700000000003 41.664 78.95100000000002 41.807 C 77.86400000000002 41.944 76.85200000000002 41.177 76.71000000000002 40.082 C 76.62500000000003 39.424 76.24200000000002 38.865 75.66100000000002 38.547000000000004 C 74.66800000000002 38.005 73.42300000000002 38.370000000000005 72.88000000000001 39.361000000000004 C 72.33900000000001 40.351000000000006 72.70400000000001 41.598000000000006 73.694 42.141000000000005 L 77.584 44.374 C 80.473 45.955000000000005 81.551 49.638000000000005 79.95 52.563 C 79.174 53.980000000000004 77.893 55.010000000000005 76.343 55.464 C 75.779 55.628 75.205 55.709 74.635 55.709 z" stroke-linecap="round" />
</g>
		<g transform="matrix(2.81 0 0 2.81 83.2 -28.42)"  >
<path style="stroke: none; stroke-width: 1; stroke-dasharray: none; stroke-linecap: butt; stroke-dashoffset: 0; stroke-linejoin: miter; stroke-miterlimit: 10; fill: rgb(42,237,0); fill-rule: nonzero; opacity: 1;" vector-effect="non-scaling-stroke"  transform=" translate(-74.66, -34.94)" d="M 74.66 38.293 C 73.556 38.293 72.66 37.397 72.66 36.293 L 72.66 33.583 C 72.66 32.479 73.556 31.583 74.66 31.583 C 75.764 31.583 76.66 32.479 76.66 33.583 L 76.66 36.293 C 76.66 37.397 75.765 38.293 74.66 38.293 z" stroke-linecap="round" />
</g>
		<g transform="matrix(2.81 0 0 2.81 83.2 28.13)"  >
<path style="stroke: none; stroke-width: 1; stroke-dasharray: none; stroke-linecap: butt; stroke-dashoffset: 0; stroke-linejoin: miter; stroke-miterlimit: 10; fill: rgb(42,237,0); fill-rule: nonzero; opacity: 1;" vector-effect="non-scaling-stroke"  transform=" translate(-74.66, -55.06)" d="M 74.66 58.417 C 73.556 58.417 72.66 57.521 72.66 56.417 L 72.66 53.707 C 72.66 52.603 73.556 51.707 74.66 51.707 C 75.764 51.707 76.66 52.603 76.66 53.707 L 76.66 56.417 C 76.66 57.521 75.765 58.417 74.66 58.417 z" stroke-linecap="round" />
</g>
		<g transform="matrix(2.81 0 0 2.81 -5.81 -0.14)"  >
<path style="stroke: none; stroke-width: 1; stroke-dasharray: none; stroke-linecap: butt; stroke-dashoffset: 0; stroke-linejoin: miter; stroke-miterlimit: 10; fill: rgb(42,237,0); fill-rule: nonzero; opacity: 1;" vector-effect="non-scaling-stroke"  transform=" translate(-42.98, -45)" d="M 65.928 90 L 20.04 90 C 14.122 90 9.308 85.186 9.308 79.268 L 9.308 10.732 C 9.308 4.814 14.122 0 20.04 0 L 65.928 0 C 71.846 0 76.66 4.814 76.66 10.732 L 76.66 25.441 C 76.66 26.544999999999998 75.764 27.441 74.66 27.441 C 73.556 27.441 72.66 26.544999999999998 72.66 25.441 L 72.66 10.732 C 72.66 7.02 69.64 4 65.928 4 L 20.04 4 C 16.328 4 13.308 7.02 13.308 10.732 L 13.308 79.267 C 13.308 82.979 16.328 85.999 20.04 85.999 L 65.928 85.999 C 69.64 85.999 72.66 82.978 72.66 79.267 L 72.66 64.559 C 72.66 63.455 73.556 62.559 74.66 62.559 C 75.764 62.559 76.66 63.455 76.66 64.559 L 76.66 79.268 C 76.66 85.186 71.846 90 65.928 90 z" stroke-linecap="round" />
</g>
		<g transform="matrix(2.81 0 0 2.81 4.86 53.49)"  >
<path style="stroke: none; stroke-width: 1; stroke-dasharray: none; stroke-linecap: butt; stroke-dashoffset: 0; stroke-linejoin: miter; stroke-miterlimit: 10; fill: rgb(42,237,0); fill-rule: nonzero; opacity: 1;" vector-effect="non-scaling-stroke"  transform=" translate(-46.78, -64.09)" d="M 60.489 66.087 L 33.068999999999996 66.087 C 31.964999999999996 66.087 31.068999999999996 65.191 31.068999999999996 64.087 C 31.068999999999996 62.983000000000004 31.964999999999996 62.087 33.068999999999996 62.087 L 60.489 62.087 C 61.592999999999996 62.087 62.489 62.983000000000004 62.489 64.087 C 62.489 65.191 61.594 66.087 60.489 66.087 z" stroke-linecap="round" />
</g>
		<g transform="matrix(2.81 0 0 2.81 4.86 19.97)"  >
<path style="stroke: none; stroke-width: 1; stroke-dasharray: none; stroke-linecap: butt; stroke-dashoffset: 0; stroke-linejoin: miter; stroke-miterlimit: 10; fill: rgb(42,237,0); fill-rule: nonzero; opacity: 1;" vector-effect="non-scaling-stroke"  transform=" translate(-46.78, -52.16)" d="M 60.489 54.159 L 33.068999999999996 54.159 C 31.964999999999996 54.159 31.068999999999996 53.263 31.068999999999996 52.159 C 31.068999999999996 51.055 31.964999999999996 50.159 33.068999999999996 50.159 L 60.489 50.159 C 61.592999999999996 50.159 62.489 51.055 62.489 52.159 C 62.489 53.263 61.594 54.159 60.489 54.159 z" stroke-linecap="round" />
</g>
		<g transform="matrix(2.81 0 0 2.81 4.86 -13.54)"  >
<path style="stroke: none; stroke-width: 1; stroke-dasharray: none; stroke-linecap: butt; stroke-dashoffset: 0; stroke-linejoin: miter; stroke-miterlimit: 10; fill: rgb(42,237,0); fill-rule: nonzero; opacity: 1;" vector-effect="non-scaling-stroke"  transform=" translate(-46.78, -40.23)" d="M 60.489 42.231 L 33.068999999999996 42.231 C 31.964999999999996 42.231 31.068999999999996 41.335 31.068999999999996 40.231 C 31.068999999999996 39.127 31.964999999999996 38.231 33.068999999999996 38.231 L 60.489 38.231 C 61.592999999999996 38.231 62.489 39.127 62.489 40.231 C 62.489 41.335 61.594 42.231 60.489 42.231 z" stroke-linecap="round" />
</g>
		<g transform="matrix(2.81 0 0 2.81 4.86 -47.06)"  >
<path style="stroke: none; stroke-width: 1; stroke-dasharray: none; stroke-linecap: butt; stroke-dashoffset: 0; stroke-linejoin: miter; stroke-miterlimit: 10; fill: rgb(42,237,0); fill-rule: nonzero; opacity: 1;" vector-effect="non-scaling-stroke"  transform=" translate(-46.78, -28.3)" d="M 60.489 30.303 L 33.068999999999996 30.303 C 31.964999999999996 30.303 31.068999999999996 29.407 31.068999999999996 28.303 C 31.068999999999996 27.199 31.964999999999996 26.303 33.068999999999996 26.303 L 60.489 26.303 C 61.592999999999996 26.303 62.489 27.199 62.489 28.303 C 62.489 29.407 61.594 30.303 60.489 30.303 z" stroke-linecap="round" />
</g>
		<g transform="matrix(2.81 0 0 2.81 -53.04 53.49)"  >
<path style="stroke: none; stroke-width: 1; stroke-dasharray: none; stroke-linecap: butt; stroke-dashoffset: 0; stroke-linejoin: miter; stroke-miterlimit: 10; fill: rgb(42,237,0); fill-rule: nonzero; opacity: 1;" vector-effect="non-scaling-stroke"  transform=" translate(-26.18, -64.09)" d="M 26.875 66.087 L 25.479 66.087 C 24.375 66.087 23.479 65.191 23.479 64.087 C 23.479 62.983000000000004 24.375 62.087 25.479 62.087 L 26.875 62.087 C 27.979 62.087 28.875 62.983000000000004 28.875 64.087 C 28.875 65.191 27.979 66.087 26.875 66.087 z" stroke-linecap="round" />
</g>
		<g transform="matrix(2.81 0 0 2.81 -53.04 19.97)"  >
<path style="stroke: none; stroke-width: 1; stroke-dasharray: none; stroke-linecap: butt; stroke-dashoffset: 0; stroke-linejoin: miter; stroke-miterlimit: 10; fill: rgb(42,237,0); fill-rule: nonzero; opacity: 1;" vector-effect="non-scaling-stroke"  transform=" translate(-26.18, -52.16)" d="M 26.875 54.159 L 25.479 54.159 C 24.375 54.159 23.479 53.263 23.479 52.159 C 23.479 51.055 24.375 50.159 25.479 50.159 L 26.875 50.159 C 27.979 50.159 28.875 51.055 28.875 52.159 C 28.875 53.263 27.979 54.159 26.875 54.159 z" stroke-linecap="round" />
</g>
		<g transform="matrix(2.81 0 0 2.81 -53.04 -13.54)"  >
<path style="stroke: none; stroke-width: 1; stroke-dasharray: none; stroke-linecap: butt; stroke-dashoffset: 0; stroke-linejoin: miter; stroke-miterlimit: 10; fill: rgb(42,237,0); fill-rule: nonzero; opacity: 1;" vector-effect="non-scaling-stroke"  transform=" translate(-26.18, -40.23)" d="M 26.875 42.231 L 25.479 42.231 C 24.375 42.231 23.479 41.335 23.479 40.231 C 23.479 39.127 24.375 38.231 25.479 38.231 L 26.875 38.231 C 27.979 38.231 28.875 39.127 28.875 40.231 C 28.875 41.335 27.979 42.231 26.875 42.231 z" stroke-linecap="round" />
</g>
		<g transform="matrix(2.81 0 0 2.81 -53.04 -47.06)"  >
<path style="stroke: none; stroke-width: 1; stroke-dasharray: none; stroke-linecap: butt; stroke-dashoffset: 0; stroke-linejoin: miter; stroke-miterlimit: 10; fill: rgb(42,237,0); fill-rule: nonzero; opacity: 1;" vector-effect="non-scaling-stroke"  transform=" translate(-26.18, -28.3)" d="M 26.875 30.303 L 25.479 30.303 C 24.375 30.303 23.479 29.407 23.479 28.303 C 23.479 27.199 24.375 26.303 25.479 26.303 L 26.875 26.303 C 27.979 26.303 28.875 27.199 28.875 28.303 C 28.875 29.407 27.979 30.303 26.875 30.303 z" stroke-linecap="round" />
</g>
</g>
</g>
</svg>