<?xml version="1.0" encoding="UTF-8" standalone="no" ?>
<!DOCTYPE svg PUBLIC "-//W3C//DTD SVG 1.1//EN" "http://www.w3.org/Graphics/SVG/1.1/DTD/svg11.dtd">
<svg xmlns="http://www.w3.org/2000/svg" xmlns:xlink="http://www.w3.org/1999/xlink" version="1.1" width="1080" height="1080" viewBox="0 0 1080 1080" xml:space="preserve">
<desc>Created with Fabric.js 5.2.4</desc>
<defs>
</defs>
<g transform="matrix(1 0 0 1 540 540)" id="e23d8c51-466f-4c24-bc4b-7da0ccadb0b6"  >
<rect style="stroke: none; stroke-width: 1; stroke-dasharray: none; stroke-linecap: butt; stroke-dashoffset: 0; stroke-linejoin: miter; stroke-miterlimit: 4; fill: rgb(255,255,255); fill-rule: nonzero; opacity: 1; visibility: hidden;" vector-effect="non-scaling-stroke"  x="-540" y="-540" rx="0" ry="0" width="1080" height="1080" />
</g>
<g transform="matrix(1 0 0 1 540 540)" id="2a57109a-5748-434e-acc0-838838417608"  >
</g>
<g transform="matrix(2.26 0 0 2.26 540 540)"  >
<path style="stroke: rgb(255,112,0); stroke-width: 1; stroke-dasharray: none; stroke-linecap: butt; stroke-dashoffset: 0; stroke-linejoin: miter; stroke-miterlimit: 4; fill: rgb(255,101,0); fill-rule: evenodd; opacity: 1;"  transform=" translate(-238.5, -255.87)" d="M 335.34 191.12 L 330.31 154.75 L 330.05 154.65 C 268.48 127.81 208.39000000000001 129.56 146.74 154.8 L 141.70000000000002 191.06 C 192.46 162.16 284.54 162.38 335.34000000000003 191.12 z M 253.82999999999998 398.78999999999996 L 285.99 447.30999999999995 C 290.74 454.54999999999995 290.57 458.43999999999994 282.96000000000004 463.24999999999994 L 250.74000000000004 483.43999999999994 C 242.90000000000003 488.3999999999999 238.27000000000004 488.69999999999993 232.82000000000005 480.3399999999999 L 197.83000000000004 427.2299999999999 C 195.65000000000003 421.9299999999999 196.71000000000004 418.0999999999999 200.42000000000004 415.44999999999993 L 225.16000000000005 399.88999999999993 C 202.27000000000004 386.5799999999999 184.33000000000004 374.5299999999999 171.93000000000006 361.88999999999993 C 157.57000000000005 347.25999999999993 150.48000000000008 331.8999999999999 151.56000000000006 313.25999999999993 C 90.63000000000005 324.66999999999996 38.39000000000006 335.36999999999995 23.250000000000057 412.3599999999999 L 19.780000000000058 438.0799999999999 L 112.49000000000005 438.0799999999999 L 112.49000000000005 401.9099999999999 L 123.82000000000005 401.9099999999999 L 123.82000000000005 500.81999999999994 L 112.49000000000005 500.81999999999994 L 112.49000000000005 463.41999999999996 L 16.37 463.41999999999996 L 11.270000000000001 501.21 L 465.62 501.21 L 459.72 463.41999999999996 L 363.99 463.41999999999996 L 363.99 500.81999999999994 L 352.67 500.81999999999994 L 352.67 401.90999999999997 L 363.99 401.90999999999997 L 363.99 438.08 L 455.76 438.08 L 449.37 397.16999999999996 C 436.93 335.96999999999997 379.63 323.90999999999997 325.56 315.41999999999996 C 325.98 333.09999999999997 318.9 347.8299999999999 305.1 361.89 C 293.05 374.16999999999996 275.78000000000003 385.89 253.8 398.76 L 253.83 398.78999999999996 z M 235.48999999999998 392.84 C 237.79 392.10999999999996 240.08999999999997 391.96 242.39 392.34999999999997 C 266.28 378.64 284.76 366.48999999999995 297.04999999999995 353.96999999999997 C 309.12999999999994 341.65999999999997 315.09999999999997 328.91999999999996 314.18999999999994 313.65999999999997 C 310.73999999999995 313.13 307.30999999999995 312.59999999999997 303.8299999999999 312.03999999999996 C 282.4699999999999 349.52 191.48999999999992 348.65999999999997 172.61999999999992 309.24999999999994 C 169.39999999999992 309.88999999999993 166.19999999999993 310.50999999999993 163.01999999999992 311.10999999999996 L 162.99999999999991 311.63999999999993 C 161.4199999999999 327.79999999999995 167.35999999999993 341.11999999999995 179.9799999999999 353.9699999999999 C 192.4099999999999 366.63999999999993 211.1999999999999 378.9199999999999 235.4899999999999 392.8399999999999 z M 299.67999999999995 300.71 C 305.3299999999999 301.65 311.53 302.60999999999996 317.79999999999995 303.57 C 377.86999999999995 312.81 445.0799999999999 323.15 459.66999999999996 395.19 C 466.09 431.61 471.21 469.05 476.93999999999994 505.68 C 477.3809061366058 508.54060990191283 475.42034233831225 511.2173613890808 472.55999999999995 511.66 L 471.74999999999994 511.72 L 5.269999999999925 511.74 C 3.6823832931077134 511.7409287981062 2.178982415981852 511.02594827988054 1.1777698116878614 509.79383586955754 C 0.17655720739387082 508.5617234592345 -0.21571937471166702 506.94384508867734 0.10999999999992482 505.39 L 12.919999999999925 410.37 C 29.629999999999924 325.37 86.26999999999992 314.78 151.96999999999994 302.5 L 152.14999999999995 302.47 C 159.61999999999995 301.08000000000004 167.21999999999994 299.65000000000003 174.86999999999995 298.1 C 175.73999999999995 297.92 176.60999999999996 297.97 177.40999999999994 298.21000000000004 L 177.45999999999995 285.51000000000005 C 162.65999999999994 272.12000000000006 157.94999999999996 255.91000000000005 151.79999999999995 237.81000000000006 C 148.94999999999996 237.43000000000006 146.27999999999994 236.11000000000007 143.87999999999997 234.16000000000005 C 134.24999999999997 226.26000000000005 130.29999999999995 211.34000000000006 130.58999999999997 199.54000000000005 L 131.17999999999998 199.64000000000004 L 138.10999999999999 149.74000000000004 L 136.14999999999998 119.01000000000003 C 136.01999999999998 116.98000000000003 135.95 115.07000000000004 135.95 113.29000000000003 C 135.95 62.500000000000036 178.82999999999998 23.02000000000004 227.82 18.240000000000038 L 227.82 13.230000000000038 C 227.82 5.9500000000000375 233.78 3.730349362740526e-14 241.06 3.730349362740526e-14 C 248.34 3.730349362740526e-14 254.29 5.9500000000000375 254.29 13.230000000000038 L 254.29 18.830000000000037 C 302 25.820000000000036 339.83 65.83000000000004 339.83 114.85000000000004 C 338.93 117.26000000000003 339.05 145.27000000000004 338.94 149.61000000000004 L 345.84 199.59000000000003 C 345.9 199.92000000000004 345.90999999999997 200.26000000000002 345.89 200.60000000000002 L 346.16999999999996 200.61 C 347.56999999999994 210.51000000000002 341.14 226.26000000000002 334.37999999999994 233.71 C 331.63999999999993 236.64000000000001 328.56999999999994 238.75 325.22999999999996 239.57000000000002 C 318.98999999999995 259.54 316.11999999999995 273.38 299.48999999999995 288.20000000000005 C 299.60999999999996 289.40000000000003 299.65999999999997 294.85 299.67999999999995 300.71000000000004 z M 238.51 62.27 C 251.32 62.27 261.7 72.66 261.7 85.46000000000001 C 261.7 98.27000000000001 251.32 108.66000000000001 238.51 108.66000000000001 C 225.7 108.66000000000001 215.32 98.27000000000001 215.32 85.46000000000001 C 215.32 72.66000000000001 225.7 62.27000000000001 238.51 62.27000000000001 z M 329.88 142.43 L 330.58 114.85000000000001 C 330.53999999999996 66.24000000000001 289.64 28.260000000000005 241.90999999999997 27.02000000000001 C 238.55999999999997 27.01000000000001 235.24999999999997 26.98000000000001 231.89999999999998 27.190000000000012 C 186.40999999999997 30.09000000000001 145.22999999999996 66.09 145.22999999999996 113.29 C 145.22999999999996 115.10000000000001 145.27999999999997 116.82000000000001 145.37999999999997 118.43 L 146.92999999999998 142.69 C 208.21999999999997 118.64 268.62 117.06 329.88 142.43 z M 140.9 202.4 C 142.05 208.58 145.95000000000002 221.06 151.09 225.3 C 154.17000000000002 227.74 155.18 225 158.48 226.77 C 161.29999999999998 228.31 161.94 232.10000000000002 162.91 234.91000000000003 C 169.77 255.27000000000004 173.78 269.05 192.14 283.06 C 220.98 304.96 259.14 305.9 287.81 283.13 C 307.21 267.83 308.46 254.59 315.38 232.73 C 317 226.45999999999998 321.88 230.67 326.12 226.01 C 330.56 220.95 334.76 209.06 336.31 202.54999999999998 C 288.37 170.98999999999998 188.81 170.67 140.9 202.39999999999998 z M 188.35000000000002 313.07 C 210.40000000000003 333.89 267.40000000000003 334.59 289.43 313.52 L 289.43 296.28 C 258.96000000000004 315.39 229.24 316.77 196.86 299.98999999999995 C 193.78 298.37999999999994 190.71 296.60999999999996 187.59 294.62999999999994 L 188.35 313.06999999999994 z M 249.51000000000002 404.89 C 249.62000000000003 405.49 249.68 406.12 249.68 406.75 C 249.68 412.46 245.06 417.09 239.35 417.09 C 233.65 417.09 229.03 412.46 229.03 406.75 C 229.03 406.12 229.08 405.49 229.19 404.89 C 234.89 407.64 241.73 407.47999999999996 249.51 404.89 z" stroke-linecap="round" />
</g>
</svg>